<?xml version="1.0" encoding="utf-8"?>
<!-- Generator: Adobe Illustrator 23.1.0, SVG Export Plug-In . SVG Version: 6.00 Build 0)  -->
<svg version="1.1" id="Layer_1" xmlns="http://www.w3.org/2000/svg" xmlns:xlink="http://www.w3.org/1999/xlink" x="0px" y="0px"
	 viewBox="0 0 1024 1024" style="enable-background:new 0 0 1024 1024;" xml:space="preserve">
<style type="text/css">
	.st0{fill:#8ECDB7;}
	.st1{fill:#FFFFFF;}
	.st2{fill:#6495ED;}
	.st3{fill:#211F1E;}
</style>
<path class="st0" d="M338.3,276.4h173.8v481.4H338.3V276.4z"/>
<path class="st1" d="M385.1,323.1h80.2v214h-80.2L385.1,323.1z"/>
<path class="st1" d="M404.5,664.1c0,11.4,9.3,20.7,20.7,20.7c11.4,0,20.7-9.3,20.7-20.7c0,0,0,0,0,0c0-11.4-9.3-20.7-20.7-20.7
	C413.8,643.4,404.5,652.6,404.5,664.1C404.5,664.1,404.5,664.1,404.5,664.1z"/>
<path class="st2" d="M512.1,276.4h173.8v481.4H512.1V276.4z"/>
<path class="st1" d="M558.9,323.1h80.2v214h-80.2V323.1z"/>
<path class="st1" d="M578.3,664.1c0,11.4,9.3,20.7,20.7,20.7s20.7-9.3,20.7-20.7s-9.3-20.7-20.7-20.7S578.3,652.7,578.3,664.1
	L578.3,664.1z"/>
<path class="st3" d="M465.3,316.5h-80.2c-3.7,0-6.7,3-6.7,6.7v214c0,3.7,3,6.7,6.7,6.7h80.2c3.7,0,6.7-3,6.7-6.7v-214
	C472,319.5,469,316.5,465.3,316.5z M458.6,530.4h-66.9V329.8h66.9V530.4z M425.2,637.4c-14.7,0-26.7,12-26.7,26.7s12,26.7,26.7,26.7
	s26.7-12,26.7-26.7S439.9,637.4,425.2,637.4z M425.2,678.8c-8.1,0-14.6-6.6-14.6-14.6c0-8.1,6.6-14.6,14.6-14.6
	c8.1,0,14.6,6.6,14.6,14.6S433.3,678.8,425.2,678.8z"/>
<path class="st3" d="M411.9,369.9h26.8c3.7,0,6.7-3,6.7-6.7c0-3.7-3-6.7-6.7-6.7h-26.8c-3.7,0-6.7,3-6.7,6.7
	C405.2,366.9,408.2,369.9,411.9,369.9z M411.9,396.6h26.8c3.7,0,6.7-3,6.7-6.7c0-3.7-3-6.7-6.7-6.7h-26.8c-3.7,0-6.7,3-6.7,6.7
	C405.2,393.6,408.2,396.6,411.9,396.6z"/>
<path class="st3" d="M686,263H338.3c-7.4,0-13.4,6-13.4,13.4v481.4c0,7.4,6,13.4,13.4,13.4H686c7.4,0,13.4-6,13.4-13.4V276.4
	C699.3,269,693.4,263,686,263z M351.6,289.7h147.1v454.7H351.6V289.7z M672.6,744.4H525.5V289.7h147.1V744.4z"/>
<path class="st3" d="M558.9,543.8h80.2c3.7,0,6.7-3,6.7-6.7v-214c0-3.7-3-6.7-6.7-6.7h-80.2c-3.7,0-6.7,3-6.7,6.7v214
	C552.2,540.8,555.2,543.8,558.9,543.8z M565.6,329.8h66.9v200.6h-66.9V329.8z M599,637.4c-14.7,0-26.7,12-26.7,26.7
	s12,26.7,26.7,26.7s26.7-12,26.7-26.7C625.8,649.4,613.8,637.4,599,637.4z M599,678.8c-8.1,0-14.6-6.6-14.6-14.6
	c0-8.1,6.6-14.6,14.6-14.6c8.1,0,14.6,6.6,14.6,14.6C613.7,672.2,607.1,678.8,599,678.8z"/>
<path class="st3" d="M612.5,356.5h-26.8c-3.7,0-6.7,3-6.7,6.7c0,3.7,3,6.7,6.7,6.7h26.8c3.7,0,6.7-3,6.7-6.7
	C619.2,359.5,616.2,356.5,612.5,356.5z M612.5,383.3h-26.8c-3.7,0-6.7,3-6.7,6.7c0,3.7,3,6.7,6.7,6.7h26.8c3.7,0,6.7-3,6.7-6.7
	C619.2,386.2,616.2,383.3,612.5,383.3L612.5,383.3z"/>
</svg>
