<?xml version="1.0" encoding="utf-8"?>
<!-- Generator: Adobe Illustrator 23.1.0, SVG Export Plug-In . SVG Version: 6.00 Build 0)  -->
<svg version="1.1" id="Layer_1" xmlns="http://www.w3.org/2000/svg" xmlns:xlink="http://www.w3.org/1999/xlink" x="0px" y="0px"
	 viewBox="0 0 256 256" style="enable-background:new 0 0 256 256;" xml:space="preserve">
<style type="text/css">
	.st0{fill:#FDFFFE;}
</style>
<desc>Created with Fabric.js 1.7.22</desc>
<g transform="translate(128 128) scale(0.72 0.72)">
	<g transform="translate(-175.05 -175.05000000000004) scale(3.89 3.89)">
		<path class="st0" d="M45,79.6c-14.2,0-24.1-5.7-28-16.1c-6.5-17.4,4.7-43.9,26.7-62.9c0.8-0.7,1.9-0.7,2.6,0
			c22,19,33.2,45.5,26.7,62.9C69.1,73.9,59.2,79.6,45,79.6z M45,4.8c-19.6,17.6-29.9,42-24.2,57.4C24.1,71,32.5,75.6,45,75.6
			S65.9,71,69.2,62.2C74.9,46.8,64.6,22.4,45,4.8z"/>
		<path class="st0" d="M45,90.1c-1.1,0-2-0.9-2-2V27.6c0-1.1,0.9-2,2-2s2,0.9,2,2v60.6C47,89.2,46.1,90.1,45,90.1z"/>
		<path class="st0" d="M45,69.2c-0.5,0-1-0.2-1.4-0.6L27.7,53.3c-0.8-0.8-0.8-2,0-2.8c0.8-0.8,2-0.8,2.8,0l15.9,15.4
			c0.8,0.8,0.8,2,0,2.8C46,69,45.5,69.2,45,69.2z"/>
		<path class="st0" d="M45,56.3c-0.5,0-1-0.2-1.4-0.6c-0.8-0.8-0.7-2.1,0-2.8l11.5-11.1c0.8-0.8,2.1-0.8,2.8,0
			c0.8,0.8,0.7,2.1,0,2.8L46.4,55.7C46,56.1,45.5,56.3,45,56.3z"/>
		<path class="st0" d="M45,44.9c-0.5,0-1-0.2-1.4-0.6l-7.1-6.9c-0.8-0.8-0.8-2,0-2.8c0.8-0.8,2-0.8,2.8,0l7.1,6.9
			c0.8,0.8,0.8,2,0,2.8C46,44.7,45.5,44.9,45,44.9z"/>
	</g>
</g>
</svg>
