<?xml version="1.0" encoding="utf-8"?>
<!-- Generator: Adobe Illustrator 23.1.0, SVG Export Plug-In . SVG Version: 6.00 Build 0)  -->
<svg version="1.1" id="Layer_1" xmlns="http://www.w3.org/2000/svg" xmlns:xlink="http://www.w3.org/1999/xlink" x="0px" y="0px"
	 viewBox="0 0 741.8 1003.6" style="enable-background:new 0 0 741.8 1003.6;" xml:space="preserve">
<style type="text/css">
	.st0{fill:#8D6B64;}
	.st1{fill:#D8B3B2;}
	.st2{fill:#D6EADF;}
	.st3{fill:#8E6B64;}
</style>
<title>sprout-logo</title>
<path class="st0" d="M567.5,329.2c-17.2-27-35-53.5-51.3-81c-21.9-36.9-38.4-76-41.8-119.4c-3.8-49.2,13.5-91.2,45.8-127.7
	c0.4-0.5,1.3-0.4,3.8-1.2c-1.2,3.4-1.7,5.9-3,8c-37.8,61.9-31.8,122.2,6,181.6c25.6,40.2,58.3,74.3,90.7,108.8
	c35.7,37.9,72.1,75.1,98,120.9c34.6,61.3,36,122.2-3.4,182.3c-2.4,3.6-4,9.9-2.5,13.6c42.2,104.4,5.8,244.1-112,315
	c-51.5,31-107.8,48.5-166.1,60.2c-69.6,14-139.6,17.7-210.2,7.4C86.2,978-6.2,868.7,0.3,732.3c3.4-70.5,32.9-128.4,95.4-165.7
	c29-17.3,60.9-22.7,94.4-19.9c36.9,3.1,73.9,5.7,110.9,8.4c23.3,1.7,45.5-2.7,66.7-12.5c31.3-14.4,63-28.1,94.3-42.7
	c62-28.9,119.9-21.2,174.6,18.3c1.7,1.2,3.6,2.4,5.9,4c9.5-15.3,9.6-31.4,6.3-47.7c-6.1-30.5-21.9-56.8-38.6-82.4
	c-3.2-4.8-10.9-6.4-15.9-10.3c-28.1-21.9-59.4-37.6-92.6-50c-8.9-3.3-13.8-2.1-19.9,5.6C380.6,464.2,181.7,439,114.6,291.1
	c-5.1-11.3-4.7-19.7,2.7-29.9c95.5-132,295.9-116.9,369.5,28.5c4.4,8.6,10,12.8,18.7,16.1c20.3,7.8,40.1,16.9,60.1,25.5l3,2
	L567.5,329.2z M299.1,977.7c73.1-1,141.3-12,207.6-34.3c54.5-18.4,103.8-45.4,141.3-90.7c69.8-84.3,70.2-207.9-0.1-289.1
	c-41.4-47.9-109-72.8-176.3-39.4c-32.5,16.1-66.1,30.2-99.3,44.9c-20.9,9.3-43,14-65.8,12.8c-39.2-2.1-78.3-5-117.4-8.7
	c-49.7-4.7-90.2,12.8-121.3,50.6c-35.7,43.4-47.5,94.3-40,149.4c10.8,78.4,49.9,137.8,120.8,174.6
	C196.8,972.8,249.4,976.3,299.1,977.7z M462.4,319.7c-66.8-16.6-133.4-21.2-200.8-17.4c-11,0.6-18-3.1-19-11.4
	c-0.9-7.9,4.6-13,15.6-14c51.6-4.5,103-1.8,154.1,6c14.7,2.2,29.3,5.1,44.7,7.8c-0.3-1.2-0.7-2.4-1.1-3.6
	c-66.9-112.7-235-121.4-313.2-16.5c-4,5.4-4.4,9.8-1.3,15.8c20.8,41.1,52.2,71.2,94,90.2C313.3,412.1,412.2,387.8,462.4,319.7z"/>
<path class="st1" d="M299.1,977.7c-49.7-1.4-102.3-4.8-150.5-29.8c-70.9-36.8-110-96.2-120.8-174.6c-7.5-55.1,4.2-106,40-149.4
	c31.2-37.9,71.6-55.3,121.3-50.6c39.1,3.7,78.2,6.6,117.4,8.7c22.7,1.2,44.9-3.6,65.8-12.8c33.2-14.7,66.8-28.8,99.3-44.9
	c67.3-33.4,134.9-8.5,176.3,39.4c70.3,81.2,69.9,204.8,0.1,289.1c-37.4,45.2-86.7,72.2-141.3,90.7
	C440.4,965.7,372.2,976.7,299.1,977.7z M289.9,685.2c0.2-1.1,0.3-2.2,0.5-3.3c38.2,0,76.1-5.9,112.5-17.4
	c32.4-10.2,63.1-23.9,89.8-45.4c8.6-6.9,10.1-14.1,4.4-20.5c-6.4-7.2-13.3-5.6-20.2-0.4c-48.5,37-104.9,51.7-164.4,56.5
	c-33.8,2.7-67.4,0.7-100.1-10.2c-10.6-3.5-18,0.9-18.9,9.9s4.4,13.8,12.2,15.3C233.7,675.3,261.8,680.1,289.9,685.2L289.9,685.2z"/>
<path class="st2" d="M462.4,319.7c-50.2,68-149.1,92.4-227,57c-41.9-19-73.3-49.1-94-90.2c-3-6-2.7-10.4,1.3-15.8
	C221,165.7,389,174.5,456,287.2c0.5,1.2,0.8,2.4,1.1,3.6c-15.4-2.7-30-5.5-44.7-7.8c-51.1-7.8-102.5-10.5-154.1-6
	c-11,1-16.5,6.1-15.6,14c1,8.3,8,12,19,11.4C329,298.5,395.6,303.2,462.4,319.7z"/>
<path class="st3" d="M289.9,685.2c-28.1-5.1-56.2-9.9-84.2-15.3c-7.8-1.5-13.2-6.2-12.2-15.3s8.3-13.5,18.9-9.9
	c32.7,10.9,66.3,12.9,100.1,10.2c59.5-4.8,115.8-19.5,164.4-56.5c6.9-5.3,13.8-6.8,20.2,0.4c5.7,6.3,4.2,13.5-4.4,20.5
	c-26.7,21.5-57.4,35.2-89.8,45.4c-36.4,11.6-74.3,17.4-112.5,17.4C290.2,683,290,684.1,289.9,685.2z"/>
</svg>
