<svg id="Layer_1" data-name="Layer 1" xmlns="http://www.w3.org/2000/svg" viewBox="0 0 741.77 1003.62"><defs><style>.cls-1{fill:#8d6b64;}.cls-2{fill:#eac4d5;}.cls-3{fill:#d6eadf;}.cls-4{fill:#8e6b64;}</style></defs><title>sprout-logo</title><path class="cls-1" d="M1197.93,377.45c-17.17-27-35-53.5-51.34-81-21.87-36.87-38.42-76-41.77-119.39-3.81-49.21,13.53-91.21,45.78-127.66.39-.45,1.31-.42,3.85-1.16-1.24,3.38-1.72,5.92-3,8-37.85,61.89-31.83,122.16,6,181.63,25.59,40.17,58.3,74.33,90.66,108.76,35.65,37.91,72.14,75.13,98,120.88,34.59,61.27,36,122.17-3.38,182.32-2.38,3.62-4,9.91-2.53,13.56,42.21,104.39,5.84,244.06-112,315-51.54,31-107.76,48.46-166.08,60.16-69.63,14-139.62,17.73-210.25,7.43C716.67,1026.3,624.2,917,630.76,780.53c3.39-70.47,32.93-128.37,95.37-165.71,29-17.32,60.9-22.69,94.44-19.9,36.93,3.08,73.9,5.7,110.86,8.43,23.32,1.73,45.45-2.71,66.72-12.5,31.34-14.43,63-28.1,94.29-42.67,62-28.9,119.87-21.2,174.57,18.29,1.74,1.25,3.55,2.4,5.91,4,9.48-15.33,9.56-31.43,6.3-47.65-6.14-30.54-21.89-56.84-38.61-82.43-3.15-4.82-10.88-6.41-15.87-10.3-28.07-21.93-59.43-37.56-92.63-50-8.87-3.33-13.8-2.1-19.92,5.57C1011,512.51,812.13,487.22,745.05,339.38c-5.12-11.27-4.66-19.67,2.74-29.9,95.48-132,295.85-116.86,369.48,28.45,4.36,8.6,10,12.76,18.68,16.07,20.31,7.77,40.09,16.93,60.08,25.51l3,2ZM929.51,1025.94c73.1-1,141.35-12,207.59-34.3,54.54-18.41,103.82-45.44,141.26-90.66,69.79-84.32,70.19-207.93-.08-289.14-41.43-47.88-109-72.75-176.33-39.38-32.53,16.12-66.09,30.16-99.3,44.89-20.9,9.27-43,14-65.77,12.83q-58.74-3.16-117.36-8.67c-49.71-4.72-90.15,12.76-121.3,50.62-35.7,43.4-47.47,94.28-40,149.38C669,899.9,708.16,959.34,779,996.11,827.18,1021.11,879.82,1024.57,929.51,1025.94ZM1092.83,368C1026,351.43,959.39,346.78,892,350.65c-11,.63-18-3.08-19-11.38-.91-7.88,4.63-13,15.63-14,51.63-4.54,103-1.8,154.13,6,14.7,2.24,29.3,5.08,44.66,7.77a25.48,25.48,0,0,0-1.13-3.59c-66.92-112.68-235-121.44-313.21-16.45-4,5.38-4.39,9.79-1.34,15.8q31.23,61.71,94,90.24C943.71,460.4,1042.59,436.08,1092.83,368Z" transform="translate(-630.43 -48.26)"/><path class="cls-2" d="M929.51,1025.94c-49.69-1.37-102.33-4.83-150.49-29.83-70.86-36.77-110-96.21-120.75-174.6-7.52-55.1,4.25-106,40-149.38,31.15-37.86,71.59-55.34,121.3-50.62q58.58,5.55,117.36,8.67c22.72,1.22,44.87-3.56,65.77-12.83,33.21-14.73,66.77-28.77,99.3-44.89,67.31-33.37,134.9-8.5,176.33,39.38,70.27,81.21,69.87,204.82.08,289.14-37.44,45.22-86.72,72.25-141.26,90.66C1070.86,1014,1002.61,1025,929.51,1025.94Zm-9.22-292.48c.16-1.09.31-2.19.47-3.28a371.76,371.76,0,0,0,112.49-17.43c32.39-10.23,63.13-23.91,89.84-45.38,8.63-6.93,10.07-14.12,4.41-20.46-6.41-7.18-13.29-5.64-20.22-.36-48.54,37-104.91,51.74-164.36,56.53-33.78,2.71-67.41.72-100.07-10.18-10.63-3.55-18,.93-18.92,9.94s4.38,13.8,12.19,15.3C864.13,723.52,892.23,728.39,920.29,733.46Z" transform="translate(-630.43 -48.26)"/><path class="cls-3" d="M1092.83,368c-50.24,68-149.12,92.36-227,57q-62.9-28.54-94-90.24c-3.05-6-2.67-10.42,1.34-15.8,78.24-105,246.29-96.23,313.21,16.45a25.48,25.48,0,0,1,1.13,3.59c-15.36-2.69-30-5.53-44.66-7.77-51.14-7.81-102.5-10.55-154.13-6-11,1-16.54,6.09-15.63,14,.95,8.3,8,12,19,11.38C959.39,346.78,1026,351.43,1092.83,368Z" transform="translate(-630.43 -48.26)"/><path class="cls-4" d="M920.29,733.46c-28.06-5.07-56.16-9.94-84.17-15.32-7.81-1.5-13.17-6.21-12.19-15.3s8.29-13.49,18.92-9.94c32.66,10.9,66.29,12.89,100.07,10.18,59.45-4.79,115.82-19.51,164.36-56.53,6.93-5.28,13.81-6.82,20.22.36,5.66,6.34,4.22,13.53-4.41,20.46-26.71,21.47-57.45,35.15-89.84,45.38a371.76,371.76,0,0,1-112.49,17.43C920.6,731.27,920.45,732.37,920.29,733.46Z" transform="translate(-630.43 -48.26)"/></svg>